<svg width="520" height="520" viewBox="0 0 520 520" fill="none" xmlns="http://www.w3.org/2000/svg">
<path d="M260 0C116.9 0 8.583 119.1 4.0208 256L4 296C4 309.3 14.75 320 27.1 320C39.45 320 52 309.3 52 296V256C52 141.3 145.34 48.2 260 48.2C374.7 48.2 468 141.3 468 256V400C468 422.09 450.09 440 428 440H317.3C309 425.7 293.7 416 276 416H245.8C222.59 416 201.3 431.69 196.93 454.49C191 485.2 214.4 512 243.1 512H276C293.72 512 309.03 502.289 317.34 488H428C476.6 488 516 448.6 516 400V256C511.4 119.1 403.1 0 260 0Z" fill="black"/>
<path d="M436 303.87C436 339.3 407.34 368 372 368H356C338.3 368 324 353.7 324 335.9V224.04C324 206.34 338.34 192 356 192H372C407.3 192 436 220.7 436 256.1V303.87Z" fill="black"/>
<path d="M163.1 191.96C180.76 191.96 195.1 206.28 195.1 224L196 335.94C196 353.64 181.66 368 164 368H148C112.7 368 84 339.3 84 303.87V256.08C84 220.66 112.66 192 148 192L163.1 191.96Z" fill="black"/>

<defs>
<filter id="filter0_d_14_38" x="0" y="0" width="520" height="520" filterUnits="userSpaceOnUse" color-interpolation-filters="sRGB">
<feFlood flood-opacity="0" result="BackgroundImageFix"/>
<feColorMatrix in="SourceAlpha" type="matrix" values="0 0 0 0 0 0 0 0 0 0 0 0 0 0 0 0 0 0 127 0" result="hardAlpha"/>
<feOffset dy="4"/>
<feGaussianBlur stdDeviation="2"/>
<feComposite in2="hardAlpha" operator="out"/>
<feColorMatrix type="matrix" values="0 0 0 0 0 0 0 0 0 0 0 0 0 0 0 0 0 0 0.25 0"/>
<feBlend mode="normal" in2="BackgroundImageFix" result="effect1_dropShadow_14_38"/>
<feBlend mode="normal" in="SourceGraphic" in2="effect1_dropShadow_14_38" result="shape"/>
</filter>
</defs>
</svg>
